<?xml version="1.0" encoding="utf-8"?>
<!-- Generator: Adobe Illustrator 27.5.0, SVG Export Plug-In . SVG Version: 6.00 Build 0)  -->
<svg version="1.1" id="Capa_1" xmlns="http://www.w3.org/2000/svg" xmlns:xlink="http://www.w3.org/1999/xlink" x="0px" y="0px"
	 viewBox="0 0 426.172 426.173" style="enable-background:new 0 0 426.172 426.173;" xml:space="preserve">
<g id="Paquete_de_vectores:_motivo_de_puntos_15">
</g>
<g id="Paquete_de_vectores:_motivo_de_puntos_15_1_">
</g>
<g id="Paquete_de_vectores:_motivo_de_puntos_03">
</g>
<radialGradient id="SVGID_1_" cx="280.8653" cy="213.0864" r="267.7679" gradientTransform="matrix(1 0 0 1 -67.7794 0)" gradientUnits="userSpaceOnUse">
	<stop  offset="0" style="stop-color:#44398E"/>
	<stop  offset="1" style="stop-color:#1D155D"/>
</radialGradient>
<rect x="0.487" y="0.488" style="fill:url(#SVGID_1_);" width="425.197" height="425.197"/>
<g>
	
		<line style="fill:none;stroke:#63C2EC;stroke-width:1.6883;stroke-linecap:round;stroke-linejoin:round;stroke-miterlimit:10;" x1="130.684" y1="233.417" x2="314.685" y2="359.838"/>
	
		<line style="fill:none;stroke:#63C2EC;stroke-width:1.6883;stroke-linecap:round;stroke-linejoin:round;stroke-miterlimit:10;" x1="314.685" y1="359.838" x2="314.685" y2="105.064"/>
</g>
<g>
	
		<line style="fill:none;stroke:#63C2EC;stroke-width:1.6883;stroke-linecap:round;stroke-linejoin:round;stroke-miterlimit:10;" x1="174.658" y1="180.543" x2="358.66" y2="306.965"/>
	
		<line style="fill:none;stroke:#63C2EC;stroke-width:1.6883;stroke-linecap:round;stroke-linejoin:round;stroke-miterlimit:10;" x1="358.66" y1="306.965" x2="358.66" y2="52.191"/>
</g>
<g>
	
		<line style="fill:none;stroke:#63C2EC;stroke-width:1.6883;stroke-linecap:round;stroke-linejoin:round;stroke-miterlimit:10;" x1="70.139" y1="267.578" x2="254.141" y2="394"/>
	
		<line style="fill:none;stroke:#63C2EC;stroke-width:1.6883;stroke-linecap:round;stroke-linejoin:round;stroke-miterlimit:10;" x1="254.141" y1="394" x2="254.141" y2="139.226"/>
</g>
<g>
	<g>
		
			<linearGradient id="SVGID_00000127012688350996608090000006548844332472398976_" gradientUnits="userSpaceOnUse" x1="148.4591" y1="194.8929" x2="205.184" y2="164.6112">
			<stop  offset="0" style="stop-color:#30338C"/>
			<stop  offset="0.7415" style="stop-color:#6A65A7"/>
			<stop  offset="1" style="stop-color:#7A75B1"/>
		</linearGradient>
		<polygon style="fill:url(#SVGID_00000127012688350996608090000006548844332472398976_);" points="196.884,238.312 157.41,210.621 
			157.41,120.845 196.884,148.535 		"/>
		
			<linearGradient id="SVGID_00000155115190378044035850000015385270107856430766_" gradientUnits="userSpaceOnUse" x1="216.6221" y1="239.8358" x2="216.6221" y2="164.0507">
			<stop  offset="0" style="stop-color:#9186BB"/>
			<stop  offset="1" style="stop-color:#C7C4E1"/>
		</linearGradient>
		<polygon style="fill:url(#SVGID_00000155115190378044035850000015385270107856430766_);" points="196.884,238.312 236.36,210.621 
			236.36,120.845 196.884,148.535 		"/>
		
			<linearGradient id="SVGID_00000085957537891628081900000012276317214795546559_" gradientUnits="userSpaceOnUse" x1="158.1323" y1="121.7558" x2="233.6598" y2="119.9787">
			<stop  offset="0" style="stop-color:#786FAD"/>
			<stop  offset="1" style="stop-color:#B2B3D7"/>
		</linearGradient>
		<polygon style="fill:url(#SVGID_00000085957537891628081900000012276317214795546559_);" points="196.884,93.131 196.884,93.13 
			196.884,93.13 196.884,93.131 157.41,120.867 196.884,148.558 196.884,148.558 196.884,148.558 196.884,148.558 236.36,120.867 		
			"/>
		<g>
			<polygon style="fill:#47417D;" points="200.145,156.527 236.36,131.124 236.36,126.959 200.145,152.365 			"/>
			<polygon style="fill:#47417D;" points="200.145,167.215 236.36,141.811 236.36,137.647 200.145,163.052 			"/>
			<polygon style="fill:#47417D;" points="200.145,177.902 236.36,152.498 236.36,148.334 200.145,173.739 			"/>
			<polygon style="fill:#47417D;" points="200.145,188.59 236.36,163.186 236.36,159.022 200.145,184.427 			"/>
			<polygon style="fill:#47417D;" points="200.145,199.278 236.36,173.874 236.36,169.709 200.145,195.115 			"/>
			<polygon style="fill:#47417D;" points="200.145,209.965 236.36,184.561 236.36,180.397 200.145,205.803 			"/>
		</g>
		<g>
			
				<linearGradient id="SVGID_00000112603434625204378310000018124151744516158872_" gradientUnits="userSpaceOnUse" x1="176.1587" y1="134.2053" x2="190.6258" y2="126.4822">
				<stop  offset="0" style="stop-color:#30338C"/>
				<stop  offset="0.7415" style="stop-color:#6A65A7"/>
				<stop  offset="1" style="stop-color:#7A75B1"/>
			</linearGradient>
			<polygon style="fill:url(#SVGID_00000112603434625204378310000018124151744516158872_);" points="196.884,141.341 
				170.066,122.528 170.066,119.258 196.884,138.07 			"/>
			
				<linearGradient id="SVGID_00000012472028958828485460000006054568864582413448_" gradientUnits="userSpaceOnUse" x1="210.293" y1="141.6278" x2="210.293" y2="127.3804">
				<stop  offset="0" style="stop-color:#9186BB"/>
				<stop  offset="1" style="stop-color:#C7C4E1"/>
			</linearGradient>
			<polygon style="fill:url(#SVGID_00000012472028958828485460000006054568864582413448_);" points="196.884,141.341 
				223.702,122.528 223.702,119.258 196.884,138.07 			"/>
			
				<linearGradient id="SVGID_00000135664346604692595120000017356999047837668242_" gradientUnits="userSpaceOnUse" x1="170.5571" y1="119.8765" x2="221.8675" y2="118.6692">
				<stop  offset="0" style="stop-color:#9186BB"/>
				<stop  offset="1" style="stop-color:#C7C4E1"/>
			</linearGradient>
			<polygon style="fill:url(#SVGID_00000135664346604692595120000017356999047837668242_);" points="196.884,100.43 
				196.884,100.429 196.884,100.429 196.884,100.43 170.066,119.272 196.884,138.085 196.884,138.085 196.884,138.085 
				196.884,138.085 223.702,119.272 			"/>
		</g>
		<g>
			<polygon style="fill:#47417D;" points="197.99,109.652 197.99,109.652 197.988,109.652 197.988,109.652 182.21,120.738 
				183.856,121.9 183.856,121.9 183.856,121.9 183.856,121.9 199.635,110.833 			"/>
			<polygon style="fill:#47417D;" points="200.971,111.781 200.971,111.778 200.971,111.778 200.971,111.781 185.191,122.866 
				186.836,124.028 186.836,124.028 186.836,124.028 186.836,124.028 202.615,112.96 			"/>
			<polygon style="fill:#47417D;" points="203.951,113.907 203.951,113.906 203.951,113.906 203.951,113.907 188.174,124.993 
				189.818,126.154 189.818,126.156 189.818,126.156 189.818,126.154 205.596,115.087 			"/>
			<polygon style="fill:#47417D;" points="206.933,116.033 206.933,116.033 206.933,116.033 206.933,116.033 191.155,127.121 
				192.799,128.281 192.799,128.283 192.799,128.283 192.799,128.281 208.577,117.214 			"/>
			<polygon style="fill:#47417D;" points="209.914,118.162 209.914,118.162 209.914,118.162 209.914,118.162 194.137,129.247 
				195.78,130.409 195.78,130.409 195.78,130.409 195.78,130.409 211.559,119.341 			"/>
		</g>
	</g>
	<g>
		<g>
			<g>
				
					<linearGradient id="SVGID_00000062161009688150091520000010150534732198283696_" gradientUnits="userSpaceOnUse" x1="-5843.4736" y1="210.1987" x2="-5752.0283" y2="161.382" gradientTransform="matrix(1 0 0 1 5900.1797 0)">
					<stop  offset="0" style="stop-color:#30338C"/>
					<stop  offset="0.7415" style="stop-color:#6A65A7"/>
					<stop  offset="1" style="stop-color:#7A75B1"/>
				</linearGradient>
				<polygon style="fill:url(#SVGID_00000062161009688150091520000010150534732198283696_);" points="143.488,276.089 
					62.418,219.223 62.418,94.932 143.488,151.796 				"/>
				
					<linearGradient id="SVGID_00000149364666542385981610000006881805750687125661_" gradientUnits="userSpaceOnUse" x1="-5735.8589" y1="278.0803" x2="-5735.8589" y2="179.0354" gradientTransform="matrix(1 0 0 1 5900.1797 0)">
					<stop  offset="0" style="stop-color:#9186BB"/>
					<stop  offset="1" style="stop-color:#C7C4E1"/>
				</linearGradient>
				<polygon style="fill:url(#SVGID_00000149364666542385981610000006881805750687125661_);" points="143.488,276.089 
					185.153,246.861 185.153,122.569 143.488,151.796 				"/>
				
					<linearGradient id="SVGID_00000078764746851880338880000006513115737116585149_" gradientUnits="userSpaceOnUse" x1="-5836.3193" y1="110.1602" x2="-5719.5273" y2="107.4122" gradientTransform="matrix(1 0 0 1 5900.1797 0)">
					<stop  offset="0" style="stop-color:#786FAD"/>
					<stop  offset="1" style="stop-color:#B2B3D7"/>
				</linearGradient>
				<polygon style="fill:url(#SVGID_00000078764746851880338880000006513115737116585149_);" points="104.082,65.682 104.082,65.68 
					104.082,65.68 104.082,65.682 62.418,94.955 143.488,151.82 143.488,151.82 143.488,151.82 143.488,151.82 185.153,122.594 				
					"/>
			</g>
			<g>
				
					<linearGradient id="SVGID_00000101821991032683928200000015138437656486295213_" gradientUnits="userSpaceOnUse" x1="-5751.9429" y1="178.5074" x2="-5727.0996" y2="187.8603" gradientTransform="matrix(1 0 0 1 5900.1797 0)">
					<stop  offset="0.0698" style="stop-color:#30338C"/>
					<stop  offset="0.4733" style="stop-color:#5C589F"/>
					<stop  offset="0.8093" style="stop-color:#726DAC"/>
					<stop  offset="1" style="stop-color:#7A75B1"/>
				</linearGradient>
				<polygon style="fill:url(#SVGID_00000101821991032683928200000015138437656486295213_);" points="149.623,219.223 
					179.018,198.603 179.018,149.902 149.623,170.523 				"/>
				<polygon style="fill:#47417D;" points="149.623,219.223 174.658,201.663 174.658,196.122 149.623,178.561 				"/>
				
					<linearGradient id="SVGID_00000026128972300715781400000016656375921946713230_" gradientUnits="userSpaceOnUse" x1="-5724.4023" y1="198.6275" x2="-5751.3911" y2="216.4007" gradientTransform="matrix(1 0 0 1 5900.1797 0)">
					<stop  offset="0.1253" style="stop-color:#30338C"/>
					<stop  offset="0.5047" style="stop-color:#5C589F"/>
					<stop  offset="0.8207" style="stop-color:#726DAC"/>
					<stop  offset="1" style="stop-color:#7A75B1"/>
				</linearGradient>
				<polygon style="fill:url(#SVGID_00000026128972300715781400000016656375921946713230_);" points="150.58,218.545 
					174.658,201.663 174.658,196.04 150.58,212.924 				"/>
				
					<linearGradient id="SVGID_00000015354803460304733910000015167604836437004702_" gradientUnits="userSpaceOnUse" x1="-5723.3418" y1="199.8358" x2="-5723.3418" y2="148.075" gradientTransform="matrix(1 0 0 1 5900.1797 0)">
					<stop  offset="0.0698" style="stop-color:#30338C"/>
					<stop  offset="0.4733" style="stop-color:#5C589F"/>
					<stop  offset="0.8093" style="stop-color:#726DAC"/>
					<stop  offset="1" style="stop-color:#7A75B1"/>
				</linearGradient>
				<polygon style="fill:url(#SVGID_00000015354803460304733910000015167604836437004702_);" points="174.658,152.96 
					174.658,201.663 179.018,198.603 179.018,149.902 				"/>
				<g>
					<polygon style="fill:#002B64;" points="150.58,169.809 149.623,170.523 149.623,219.223 150.58,218.51 					"/>
					<polygon style="fill:#002B64;" points="149.623,171.692 179.018,151.093 179.018,149.902 149.623,170.503 					"/>
				</g>
			</g>
			<polygon style="opacity:0.8;fill:#47417D;" points="149.623,219.223 179.018,198.603 179.018,149.902 149.623,170.523 			"/>
			<g>
				<g>
					
						<linearGradient id="SVGID_00000156569254298240849440000012027646394895018942_" gradientUnits="userSpaceOnUse" x1="-5805.4033" y1="128.9308" x2="-5772.3955" y2="111.3101" gradientTransform="matrix(1 0 0 1 5900.1797 0)">
						<stop  offset="0" style="stop-color:#30338C"/>
						<stop  offset="0.7415" style="stop-color:#6A65A7"/>
						<stop  offset="1" style="stop-color:#7A75B1"/>
					</linearGradient>
					<polygon style="fill:url(#SVGID_00000156569254298240849440000012027646394895018942_);" points="143.771,144.175 
						79.168,99.088 79.168,95.863 143.771,140.951 					"/>
					
						<linearGradient id="SVGID_00000089552807638600142130000017811244254177135004_" gradientUnits="userSpaceOnUse" x1="-5741.8672" y1="144.4818" x2="-5741.8672" y2="129.2396" gradientTransform="matrix(1 0 0 1 5900.1797 0)">
						<stop  offset="0" style="stop-color:#9186BB"/>
						<stop  offset="1" style="stop-color:#C7C4E1"/>
					</linearGradient>
					<polygon style="fill:url(#SVGID_00000089552807638600142130000017811244254177135004_);" points="143.771,144.175 
						172.854,123.774 172.854,120.55 143.771,140.951 					"/>
					
						<linearGradient id="SVGID_00000101785666121427335180000007858689854893507491_" gradientUnits="userSpaceOnUse" x1="-5819.8696" y1="109.2811" x2="-5730.8013" y2="107.1853" gradientTransform="matrix(1 0 0 1 5900.1797 0)">
						<stop  offset="0" style="stop-color:#786FAD"/>
						<stop  offset="1" style="stop-color:#B2B3D7"/>
					</linearGradient>
					<polygon style="fill:url(#SVGID_00000101785666121427335180000007858689854893507491_);" points="108.25,75.443 108.25,75.443 
						108.25,75.443 108.25,75.443 79.168,95.879 143.771,140.966 143.771,140.969 143.771,140.969 143.771,140.966 172.854,120.567 
											"/>
				</g>
				<g>
					<g>
						<polygon style="fill:#47417D;" points="111.924,81.937 111.924,81.937 111.924,81.937 111.924,81.937 87.998,98.729 
							89.848,100.021 89.848,100.021 89.848,100.021 89.848,100.021 113.772,83.228 						"/>
						<polygon style="fill:#47417D;" points="115.14,84.168 115.14,84.168 115.14,84.168 115.14,84.168 91.211,100.96 
							93.062,102.251 93.062,102.251 93.062,102.251 93.062,102.251 116.988,85.458 						"/>
						<polygon style="fill:#47417D;" points="118.354,86.443 118.354,86.443 118.354,86.443 118.354,86.443 94.427,103.234 
							96.273,104.527 96.273,104.527 96.273,104.527 96.273,104.527 120.2,87.733 						"/>
					</g>
					<g>
						<polygon style="fill:#47417D;" points="133.656,97.274 133.656,97.274 133.656,97.274 133.656,97.274 109.815,113.997 
							111.664,115.288 111.664,115.288 111.664,115.288 111.664,115.288 135.506,98.565 						"/>
						<polygon style="fill:#47417D;" points="136.869,99.535 136.869,99.535 136.869,99.535 136.869,99.535 113.008,116.245 
							114.855,117.534 114.855,117.534 114.855,117.534 114.855,117.534 138.715,100.825 						"/>
						<polygon style="fill:#47417D;" points="140.082,101.794 140.082,101.794 140.082,101.794 140.082,101.794 116.158,118.586 
							118.004,119.876 118.004,119.876 118.004,119.876 118.004,119.876 141.932,103.085 						"/>
					</g>
					<g>
						<polygon style="fill:#47417D;" points="156.161,112.962 156.161,112.962 156.161,112.962 156.161,112.962 132.234,129.753 
							134.083,131.043 134.083,131.043 134.083,131.043 134.083,131.043 158.008,114.251 						"/>
						<polygon style="fill:#47417D;" points="159.373,115.222 159.373,115.222 159.373,115.222 159.373,115.222 135.448,132.014 
							137.297,133.305 137.297,133.305 137.297,133.305 137.297,133.305 161.22,116.512 						"/>
						<polygon style="fill:#47417D;" points="162.588,117.481 162.588,117.481 162.588,117.481 162.588,117.481 138.66,134.274 
							140.509,135.566 140.509,135.566 140.509,135.566 140.509,135.566 164.436,118.774 						"/>
					</g>
				</g>
			</g>
		</g>
		<g>
			<polygon style="fill:#47417D;" points="146.402,233.908 182.234,208.793 182.234,205.609 146.402,230.723 			"/>
			<polygon style="fill:#47417D;" points="146.402,242.084 182.234,216.97 182.234,213.784 146.402,238.898 			"/>
			<polygon style="fill:#47417D;" points="146.402,250.259 182.234,225.145 182.234,221.96 146.402,247.075 			"/>
			<polygon style="fill:#47417D;" points="146.402,258.437 182.234,233.321 182.234,230.136 146.402,255.251 			"/>
			<polygon style="fill:#47417D;" points="146.402,266.613 182.234,241.498 182.234,238.312 146.402,263.427 			"/>
		</g>
		<g>
			<g>
				<path style="fill:#000033;" d="M157.41,184.436c0-4.115,4.059-10.556,7.428-12.883c3.366-2.335,7.479-1.658,7.479,2.456
					c0,2.917-1.866,6.692-4.194,9.515c0.131,4.246,0.199,6.366,0.336,10.614c-2.662,1.851-4.052,2.796-6.821,4.739l0.018-10.909
					C159.259,188.445,157.41,187.358,157.41,184.436z"/>
			</g>
			<g>
				<g>
					
						<linearGradient id="SVGID_00000000194572972850441410000003870852328871932304_" gradientUnits="userSpaceOnUse" x1="2514.7437" y1="185.8094" x2="2454.3284" y2="226.2917" gradientTransform="matrix(-1 0 0 1 2672.8672 0)">
						<stop  offset="0" style="stop-color:#30338C"/>
						<stop  offset="0.7415" style="stop-color:#6A65A7"/>
						<stop  offset="1" style="stop-color:#7A75B1"/>
					</linearGradient>
					<path style="fill:url(#SVGID_00000000194572972850441410000003870852328871932304_);" d="M159.447,178.088l25.684,17.499
						v16.928l-23.476-16.016v-8.53c0,0-1.231,0.405-2.479-0.157c-1.405-0.632-1.629-2.046-1.629-2.046s-0.498-1.539,0.254-4.035
						C158.349,179.91,159.447,178.088,159.447,178.088z"/>
					<polygon style="fill:#C97D2B;" points="185.043,212.792 188.746,210.387 188.746,193.461 185.043,195.862 					"/>
					
						<linearGradient id="SVGID_00000163759941204113470590000012928948093050223284_" gradientUnits="userSpaceOnUse" x1="2484.0332" y1="185.1111" x2="2513.4199" y2="185.1111" gradientTransform="matrix(-1 0 0 1 2672.8672 0)">
						<stop  offset="0" style="stop-color:#786FAD"/>
						<stop  offset="1" style="stop-color:#B2B3D7"/>
					</linearGradient>
					<path style="fill:url(#SVGID_00000163759941204113470590000012928948093050223284_);" d="M161.655,174.632l27.179,18.554
						l-3.707,2.404l-25.68-17.502c0,0,0.59-1.153,0.816-1.519C160.578,176.064,161.655,174.632,161.655,174.632z"/>
				</g>
				<g>
					
						<linearGradient id="SVGID_00000008124798997351782910000002256168551177299130_" gradientUnits="userSpaceOnUse" x1="2447.7649" y1="208.4834" x2="2487.9727" y2="208.4834" gradientTransform="matrix(-1 0 0 1 2672.8672 0)">
						<stop  offset="0" style="stop-color:#786FAD"/>
						<stop  offset="1" style="stop-color:#B2B3D7"/>
					</linearGradient>
					<path style="fill:url(#SVGID_00000008124798997351782910000002256168551177299130_);" d="M219.492,197.838
						c-7.777-11.622-20.746-16.578-28.964-11.078c-0.266,0.176-0.519,0.366-0.771,0.556l-0.018-0.011l-4.845,3.416
						c8.224-5.271,21.033-0.298,28.743,11.221c7.561,11.288,7.437,24.713-0.114,30.509l5.076-3.549
						c0.035-0.021,0.068-0.04,0.097-0.065C226.918,223.333,227.271,209.458,219.492,197.838z"/>
					
						<linearGradient id="SVGID_00000101092260964973725040000016584351741079327112_" gradientUnits="userSpaceOnUse" x1="2514.2175" y1="185.0253" x2="2453.8025" y2="225.5073" gradientTransform="matrix(-1 0 0 1 2672.8672 0)">
						<stop  offset="0" style="stop-color:#30338C"/>
						<stop  offset="0.7415" style="stop-color:#6A65A7"/>
						<stop  offset="1" style="stop-color:#7A75B1"/>
					</linearGradient>
					<path style="fill:url(#SVGID_00000101092260964973725040000016584351741079327112_);" d="M183.883,221.861
						c7.78,11.624,20.746,16.58,28.963,11.078c8.216-5.499,8.574-19.378,0.792-30.997c-7.78-11.622-20.746-16.582-28.964-11.082
						C176.457,196.361,176.104,210.241,183.883,221.861z M203.768,214.921c1.805-1.212,4.648-0.122,6.355,2.431
						c1.707,2.55,1.629,5.597-0.176,6.804c-1.803,1.208-4.648,0.118-6.354-2.431C201.885,219.173,201.965,216.129,203.768,214.921z"
						/>
				</g>
			</g>
		</g>
	</g>
	<g>
		
			<linearGradient id="SVGID_00000011018001255543170450000015800828712265342357_" gradientUnits="userSpaceOnUse" x1="42.7853" y1="269.287" x2="99.5109" y2="239.0049">
			<stop  offset="0" style="stop-color:#30338C"/>
			<stop  offset="0.7415" style="stop-color:#6A65A7"/>
			<stop  offset="1" style="stop-color:#7A75B1"/>
		</linearGradient>
		<polygon style="fill:url(#SVGID_00000011018001255543170450000015800828712265342357_);" points="91.211,312.706 51.736,285.015 
			51.736,195.238 91.211,222.929 		"/>
		
			<linearGradient id="SVGID_00000091005056454503757760000011083854000955568774_" gradientUnits="userSpaceOnUse" x1="110.9477" y1="314.2298" x2="110.9477" y2="238.4444">
			<stop  offset="0" style="stop-color:#9186BB"/>
			<stop  offset="1" style="stop-color:#C7C4E1"/>
		</linearGradient>
		<polygon style="fill:url(#SVGID_00000091005056454503757760000011083854000955568774_);" points="91.211,312.706 130.684,285.015 
			130.684,195.238 91.211,222.929 		"/>
		
			<linearGradient id="SVGID_00000062184893252741866360000016045951127252102791_" gradientUnits="userSpaceOnUse" x1="52.4585" y1="196.1498" x2="127.984" y2="194.3727">
			<stop  offset="0" style="stop-color:#786FAD"/>
			<stop  offset="1" style="stop-color:#B2B3D7"/>
		</linearGradient>
		<polygon style="fill:url(#SVGID_00000062184893252741866360000016045951127252102791_);" points="91.211,167.525 91.211,167.524 
			91.211,167.524 91.211,167.525 51.736,195.261 91.211,222.951 91.211,222.952 91.211,222.952 91.211,222.951 130.684,195.261 		
			"/>
		<g>
			<polygon style="fill:#47417D;" points="94.471,230.921 130.684,205.518 130.684,201.353 94.471,226.759 			"/>
			<polygon style="fill:#47417D;" points="94.471,241.608 130.684,216.205 130.684,212.041 94.471,237.446 			"/>
			<polygon style="fill:#47417D;" points="94.471,252.296 130.684,226.892 130.684,222.729 94.471,248.133 			"/>
			<polygon style="fill:#47417D;" points="94.471,262.984 130.684,237.58 130.684,233.417 94.471,258.821 			"/>
			<polygon style="fill:#47417D;" points="94.471,273.671 130.684,248.268 130.684,244.104 94.471,269.509 			"/>
			<polygon style="fill:#47417D;" points="94.471,284.359 130.684,258.955 130.684,254.791 94.471,280.196 			"/>
		</g>
		<g>
			
				<linearGradient id="SVGID_00000159459899648842561470000009202352589047813553_" gradientUnits="userSpaceOnUse" x1="70.4847" y1="208.5991" x2="84.9526" y2="200.8757">
				<stop  offset="0" style="stop-color:#30338C"/>
				<stop  offset="0.7415" style="stop-color:#6A65A7"/>
				<stop  offset="1" style="stop-color:#7A75B1"/>
			</linearGradient>
			<polygon style="fill:url(#SVGID_00000159459899648842561470000009202352589047813553_);" points="91.211,215.735 64.393,196.922 
				64.393,193.651 91.211,212.464 			"/>
			
				<linearGradient id="SVGID_00000121269969226511450310000016209294031609041043_" gradientUnits="userSpaceOnUse" x1="104.6196" y1="216.0218" x2="104.6196" y2="201.7738">
				<stop  offset="0" style="stop-color:#9186BB"/>
				<stop  offset="1" style="stop-color:#C7C4E1"/>
			</linearGradient>
			<polygon style="fill:url(#SVGID_00000121269969226511450310000016209294031609041043_);" points="91.211,215.735 
				118.028,196.922 118.028,193.651 91.211,212.464 			"/>
			
				<linearGradient id="SVGID_00000089561704443656828210000007285907288897358508_" gradientUnits="userSpaceOnUse" x1="64.8832" y1="194.2703" x2="116.1936" y2="193.063">
				<stop  offset="0" style="stop-color:#9186BB"/>
				<stop  offset="1" style="stop-color:#C7C4E1"/>
			</linearGradient>
			<polygon style="fill:url(#SVGID_00000089561704443656828210000007285907288897358508_);" points="91.211,174.823 91.211,174.823 
				91.211,174.823 91.211,174.823 64.393,193.667 91.211,212.479 91.211,212.479 91.211,212.479 91.211,212.479 118.028,193.667 			
				"/>
		</g>
		<g>
			<polygon style="fill:#47417D;" points="92.316,184.046 92.316,184.046 92.314,184.046 92.314,184.046 76.536,195.132 
				78.181,196.294 78.181,196.294 78.181,196.294 78.181,196.294 93.959,185.227 			"/>
			<polygon style="fill:#47417D;" points="95.297,186.174 95.297,186.172 95.297,186.172 95.297,186.174 79.518,197.26 
				81.162,198.422 81.162,198.422 81.162,198.422 81.162,198.422 96.941,187.354 			"/>
			<polygon style="fill:#47417D;" points="98.278,188.301 98.278,188.3 98.278,188.3 98.278,188.301 82.5,199.387 84.145,200.548 
				84.145,200.55 84.145,200.55 84.145,200.548 99.922,189.48 			"/>
			<polygon style="fill:#47417D;" points="101.26,190.427 101.26,190.427 101.26,190.427 101.26,190.427 85.481,201.515 
				87.126,202.675 87.126,202.677 87.126,202.677 87.126,202.675 102.903,191.608 			"/>
			<polygon style="fill:#47417D;" points="104.24,192.556 104.24,192.556 104.24,192.556 104.24,192.556 88.463,203.642 
				90.107,204.803 90.107,204.803 90.107,204.803 90.107,204.803 105.885,193.735 			"/>
		</g>
	</g>
</g>
<g>
	<g>
		<g>
			
				<linearGradient id="SVGID_00000066495336041978849190000000743021019286945190_" gradientUnits="userSpaceOnUse" x1="670.5045" y1="53.9988" x2="670.5652" y2="53.9988" gradientTransform="matrix(1 0.0052 -0.0052 1 -359.8098 21.207)">
				<stop  offset="0" style="stop-color:#30338C"/>
				<stop  offset="0.7415" style="stop-color:#6A65A7"/>
				<stop  offset="1" style="stop-color:#7A75B1"/>
			</linearGradient>
			<path style="fill:url(#SVGID_00000066495336041978849190000000743021019286945190_);" d="M310.414,78.678
				c0.021,0.007,0.031,0.018,0.047,0.029l0.014,0.001c-0.014-0.008-0.023-0.012-0.033-0.017
				C310.435,78.685,310.432,78.683,310.414,78.678z"/>
			
				<linearGradient id="SVGID_00000079478749644347855940000008475012758749458819_" gradientUnits="userSpaceOnUse" x1="662.2692" y1="52.6535" x2="662.518" y2="52.6535" gradientTransform="matrix(1 0.0052 -0.0052 1 -359.8098 21.207)">
				<stop  offset="0" style="stop-color:#30338C"/>
				<stop  offset="0.7415" style="stop-color:#6A65A7"/>
				<stop  offset="1" style="stop-color:#7A75B1"/>
			</linearGradient>
			<path style="fill:url(#SVGID_00000079478749644347855940000008475012758749458819_);" d="M302.435,77.288
				c-0.083,0.008-0.163,0.021-0.249,0.033C302.271,77.31,302.352,77.297,302.435,77.288z"/>
			<g>
				
					<linearGradient id="SVGID_00000097462108726683306170000017980656206274304446_" gradientUnits="userSpaceOnUse" x1="690.6178" y1="39.5937" x2="734.4503" y2="39.5937" gradientTransform="matrix(1 0.0052 -0.0052 1 -359.8098 21.207)">
					<stop  offset="0" style="stop-color:#30338C"/>
					<stop  offset="0.7415" style="stop-color:#6A65A7"/>
					<stop  offset="1" style="stop-color:#7A75B1"/>
				</linearGradient>
				<path style="fill:url(#SVGID_00000097462108726683306170000017980656206274304446_);" d="M371.131,65.41l-24.472-16.902
					c-2.192-1.941-5.478-2.297-9.616,0.849c-2.07,1.574-4.44,4.569-6.401,7.445c5.729,4.118,10.893,7.913,15.756,11.216h-0.009
					c-0.268-0.138-0.551-0.254-0.842-0.359c4.203,1.532,6.364,6.49,6.329,13.512c0,0.254-0.013,0.511-0.022,0.766
					c2.221-5.52,5.993-11.296,10.383-14.342c0.398-0.276,0.789-0.518,1.17-0.74c0.024-0.016,0.057-0.032,0.077-0.045
					c0.367-0.21,0.728-0.392,1.083-0.552c0.041-0.02,0.08-0.039,0.121-0.057c0.346-0.152,0.682-0.28,1.014-0.389
					c0.045-0.014,0.093-0.031,0.137-0.045c0.323-0.103,0.642-0.18,0.954-0.24c0.048-0.01,0.099-0.017,0.141-0.026
					c0.31-0.057,0.611-0.088,0.91-0.104c0.04-0.001,0.079-0.003,0.123-0.005c0.294-0.008,0.587,0,0.866,0.031
					c0.033,0.004,0.064,0.009,0.099,0.012c0.284,0.034,0.559,0.088,0.827,0.163c0.02,0.006,0.043,0.014,0.065,0.021
					c0.277,0.081,0.536,0.18,0.792,0.302c0.011,0.002,0.018,0.006,0.021,0.009c1.068,0.518,1.943,1.391,2.588,2.563
					c0,0,0,0.006,0,0.008c0.158,0.29,0.303,0.599,0.431,0.926c0,0.008,0.005,0.014,0.005,0.022c0.133,0.323,0.246,0.667,0.34,1.022
					c0,0.012,0.007,0.021,0.007,0.028c0.099,0.359,0.176,0.736,0.241,1.128c0,0.007,0.003,0.017,0.003,0.024
					c0.066,0.394,0.114,0.803,0.141,1.23c0,0,0,0.003,0,0.006C374.33,69.32,373.127,66.675,371.131,65.41z"/>
				
					<linearGradient id="SVGID_00000095309905305647950230000006143948056876138646_" gradientUnits="userSpaceOnUse" x1="700.5405" y1="42.4126" x2="701.8463" y2="42.4126" gradientTransform="matrix(1 0.0052 -0.0052 1 -359.8098 21.207)">
					<stop  offset="0" style="stop-color:#30338C"/>
					<stop  offset="0.7415" style="stop-color:#6A65A7"/>
					<stop  offset="1" style="stop-color:#7A75B1"/>
				</linearGradient>
				<path style="fill:url(#SVGID_00000095309905305647950230000006143948056876138646_);" d="M340.51,67.344
					c0.014,0,0.038-0.006,0.051-0.008c0.43-0.075,0.847-0.119,1.256-0.148C341.392,67.218,340.959,67.267,340.51,67.344z"/>
				
					<linearGradient id="SVGID_00000025411792046429088290000011562104224825267858_" gradientUnits="userSpaceOnUse" x1="703.2994" y1="42.5311" x2="705.452" y2="42.5311" gradientTransform="matrix(1 0.0052 -0.0052 1 -359.8098 21.207)">
					<stop  offset="0" style="stop-color:#30338C"/>
					<stop  offset="0.7415" style="stop-color:#6A65A7"/>
					<stop  offset="1" style="stop-color:#7A75B1"/>
				</linearGradient>
				<path style="fill:url(#SVGID_00000025411792046429088290000011562104224825267858_);" d="M345.42,67.615
					c-0.671-0.231-1.383-0.374-2.15-0.429C344.037,67.242,344.749,67.386,345.42,67.615z"/>
				
					<linearGradient id="SVGID_00000170264736759258737240000006710502306571207595_" gradientUnits="userSpaceOnUse" x1="702.0151" y1="42.3088" x2="703.1762" y2="42.3088" gradientTransform="matrix(1 0.0052 -0.0052 1 -359.8098 21.207)">
					<stop  offset="0" style="stop-color:#30338C"/>
					<stop  offset="0.7415" style="stop-color:#6A65A7"/>
					<stop  offset="1" style="stop-color:#7A75B1"/>
				</linearGradient>
				<path style="fill:url(#SVGID_00000170264736759258737240000006710502306571207595_);" d="M341.985,67.176
					c0.398-0.019,0.789-0.022,1.161,0C342.772,67.153,342.383,67.157,341.985,67.176z"/>
			</g>
			
				<linearGradient id="SVGID_00000158022885279747876500000000652978929118522262_" gradientUnits="userSpaceOnUse" x1="665.2781" y1="52.5171" x2="665.5086" y2="52.5171" gradientTransform="matrix(1 0.0052 -0.0052 1 -359.8098 21.207)">
				<stop  offset="0" style="stop-color:#30338C"/>
				<stop  offset="0.7415" style="stop-color:#6A65A7"/>
				<stop  offset="1" style="stop-color:#7A75B1"/>
			</linearGradient>
			<path style="fill:url(#SVGID_00000158022885279747876500000000652978929118522262_);" d="M305.426,77.192
				c-0.076-0.005-0.153-0.01-0.23-0.017C305.272,77.183,305.35,77.187,305.426,77.192z"/>
		</g>
		<g>
			
				<linearGradient id="SVGID_00000034070685947524240160000002599554850849068444_" gradientUnits="userSpaceOnUse" x1="624.3007" y1="104.807" x2="624.9084" y2="104.807" gradientTransform="matrix(1 0.0052 -0.0052 1 -359.8098 21.207)">
				<stop  offset="0" style="stop-color:#30338C"/>
				<stop  offset="0.7415" style="stop-color:#6A65A7"/>
				<stop  offset="1" style="stop-color:#7A75B1"/>
			</linearGradient>
			<path style="fill:url(#SVGID_00000034070685947524240160000002599554850849068444_);" d="M264.541,129.517
				c0-0.024,0.004-0.051,0.012-0.074l-0.605-0.436C264.147,129.167,264.348,129.334,264.541,129.517z"/>
			
				<linearGradient id="SVGID_00000100365897281213145490000012128584026235429052_" gradientUnits="userSpaceOnUse" x1="566.4406" y1="117.5464" x2="624.0008" y2="117.5464" gradientTransform="matrix(1 0.0052 -0.0052 1 -359.8098 21.207)">
				<stop  offset="0" style="stop-color:#30338C"/>
				<stop  offset="0.7415" style="stop-color:#6A65A7"/>
				<stop  offset="1" style="stop-color:#7A75B1"/>
			</linearGradient>
			<path style="fill:url(#SVGID_00000100365897281213145490000012128584026235429052_);" d="M231.15,165.584
				c0.055-9.953,8.211-27.693,18.736-34.994c5.619-3.899,10.465-4.162,13.762-1.797l-24.27-17.513c0,0-1.091-0.89-1.49-1.129
				c-0.367-0.215-1.555-0.692-1.555-0.692c-3.111-1.017-7.111-0.229-11.609,2.892c-10.526,7.301-18.685,25.042-18.734,34.994
				c-0.029,5.013,1.961,9.393,5.219,11.667l0,0l0.041,0.033c0.014,0.009,0.027,0.019,0.042,0.026l22.491,15.574
				C232.091,172.264,231.133,169.08,231.15,165.584z"/>
		</g>
		
			<linearGradient id="SVGID_00000152241214163295158420000003326948619550764453_" gradientUnits="userSpaceOnUse" x1="602.2075" y1="145.9095" x2="700.4197" y2="51.9672" gradientTransform="matrix(1 0.0052 -0.0052 1 -359.8098 21.207)">
			<stop  offset="0" style="stop-color:#827DB6"/>
			<stop  offset="1" style="stop-color:#B2B3D7"/>
		</linearGradient>
		<path style="fill:url(#SVGID_00000152241214163295158420000003326948619550764453_);" d="M374.435,74.082
			c0.035-7.747-5.188-11.35-12.199-6.486c-4.39,3.046-8.162,8.822-10.383,14.342c0.01-0.255,0.022-0.512,0.022-0.766
			c0.064-12.401-6.716-18.392-19.524-10.382c-6.182,3.866-11.266,11.487-14.885,19.034c-2.453-12.372-12.746-17.033-25.967-7.869
			c-14.191,9.848-25.411,32.803-26.959,47.563c-3.277-3.116-8.508-3.193-14.654,1.073c-10.525,7.301-18.682,25.041-18.736,34.994
			c-0.047,8.973,6.344,15.927,14.981,12.372l116.911-81.111l0.307-0.212C369.836,91.501,374.392,81.974,374.435,74.082z"/>
		
			<linearGradient id="SVGID_00000089544266716295454310000016938784195055759274_" gradientUnits="userSpaceOnUse" x1="654.5108" y1="44.6889" x2="706.4315" y2="44.6889" gradientTransform="matrix(1 0.0052 -0.0052 1 -359.8098 21.207)">
			<stop  offset="0" style="stop-color:#30338C"/>
			<stop  offset="0.7415" style="stop-color:#6A65A7"/>
			<stop  offset="1" style="stop-color:#7A75B1"/>
		</linearGradient>
		<path style="fill:url(#SVGID_00000089544266716295454310000016938784195055759274_);" d="M326.688,53.974
			c-3.275-2.323-7.97-4.959-10.008-4.963c-2.778-0.001-6.004,1.108-9.51,3.54c-4.874,3.381-9.27,8.862-12.691,14.851
			c6.727,4.841,14.888,10.745,14.888,10.745c-0.009-0.003-0.026-0.007-0.04-0.011c0.369,0.16,0.732,0.338,1.078,0.537
			c0.018,0.007,0.03,0.01,0.037,0.018c0.016,0.006,0.033,0.016,0.037,0.017h-0.004c0.05,0.027,0.098,0.06,0.146,0.089
			c0.69,0.412,1.346,0.898,1.952,1.456c0.061,0.06,0.132,0.121,0.196,0.182c0.289,0.282,0.582,0.576,0.853,0.893
			c0,0.003,0.007,0.003,0.007,0.006c0.27,0.319,0.529,0.659,0.78,1.014c0.055,0.078,0.116,0.16,0.171,0.243
			c0.242,0.353,0.478,0.717,0.695,1.102c0.002,0.004,0.006,0.009,0.009,0.014c0.22,0.39,0.417,0.796,0.615,1.215
			c0.048,0.102,0.093,0.203,0.141,0.308c0.185,0.421,0.362,0.853,0.525,1.303c0,0.005,0.005,0.009,0.005,0.013
			c0.164,0.454,0.309,0.928,0.443,1.41c0.035,0.12,0.068,0.24,0.098,0.36c0.127,0.49,0.252,0.992,0.355,1.508
			c3.619-7.547,8.703-15.167,14.885-19.034c0.113-0.079,0.225-0.142,0.34-0.201c5.887-3.603,10.488-4.21,13.697-2.57h0.009
			C340.435,63.971,334.043,59.195,326.688,53.974z"/>
		
			<linearGradient id="SVGID_00000019638696113905271770000007405385078618445206_" gradientUnits="userSpaceOnUse" x1="599.6409" y1="69.79" x2="669.454" y2="69.79" gradientTransform="matrix(1 0.0052 -0.0052 1 -359.8098 21.207)">
			<stop  offset="0" style="stop-color:#30338C"/>
			<stop  offset="0.7415" style="stop-color:#6A65A7"/>
			<stop  offset="1" style="stop-color:#7A75B1"/>
		</linearGradient>
		<path style="fill:url(#SVGID_00000019638696113905271770000007405385078618445206_);" d="M291.5,81.955
			c3.281-2.271,6.373-3.691,9.213-4.357c0,0,3.553-0.938,8.653,0.549c0,0-21.021-15.21-23.394-16.813
			c-4.752-3.213-11.596-3.112-19.517,2.384c-14.197,9.848-25.534,32.801-27.077,47.563l25.178,18.093
			C266.161,114.609,277.353,91.771,291.5,81.955z"/>
	</g>
	<path style="opacity:0.39;fill:#FFFFFF;" d="M284.5,88.079c-10.754,11.363-18.68,29.211-19.959,41.439
		c-3.277-3.116-8.508-3.193-14.654,1.073c-10.525,7.301-18.682,25.041-18.736,34.994c-0.047,8.973,6.344,15.927,14.981,12.372
		l83.334-57.816L284.5,88.079z"/>
</g>
</svg>
